<svg width="77" height="14" viewBox="0 0 77 14" fill="none" xmlns="http://www.w3.org/2000/svg">
<path d="M64.5755 13.9994C64.5207 13.9994 64.4658 13.9825 64.4197 13.9491C64.3381 13.8902 64.2973 13.7905 64.3145 13.6919L65.1336 8.95332L61.6648 5.5978C61.5927 5.52784 61.5668 5.42344 61.5978 5.3285C61.629 5.23329 61.712 5.16386 61.8119 5.1494L66.6052 4.45799L68.7492 0.14676C68.7937 0.0568166 68.8859 1.02754e-05 68.9866 1.02754e-05C69.0875 1.02754e-05 69.1797 0.0568166 69.224 0.14676L71.3676 4.45799L76.1613 5.1494C76.2612 5.16386 76.3439 5.23303 76.3754 5.3285C76.4064 5.42344 76.3807 5.52811 76.3084 5.5978L72.8396 8.95384L73.6584 13.6922C73.6753 13.7908 73.6345 13.8905 73.5532 13.9494C73.4716 14.0088 73.3632 14.0164 73.2739 13.9694L68.9866 11.7324L64.6987 13.9694C64.6601 13.9894 64.6177 13.9994 64.5755 13.9994Z" fill="#FFA800"/>
<path d="M44.3452 13.9994C44.2904 13.9994 44.2355 13.9825 44.1894 13.9491C44.1078 13.8902 44.067 13.7905 44.0842 13.6919L44.9033 8.95332L41.4345 5.5978C41.3624 5.52784 41.3365 5.42344 41.3675 5.3285C41.3987 5.23329 41.4817 5.16386 41.5816 5.1494L46.3749 4.45799L48.5188 0.14676C48.5633 0.0568166 48.6555 1.02754e-05 48.7562 1.02754e-05C48.8572 1.02754e-05 48.9494 0.0568166 48.9936 0.14676L51.1373 4.45799L55.9309 5.1494C56.0308 5.16386 56.1135 5.23303 56.145 5.3285C56.176 5.42344 56.1503 5.52811 56.078 5.5978L52.6092 8.95384L53.428 13.6922C53.4449 13.7908 53.4041 13.8905 53.3228 13.9494C53.2412 14.0088 53.1328 14.0164 53.0435 13.9694L48.7562 11.7324L44.4684 13.9694C44.4297 13.9894 44.3873 13.9994 44.3452 13.9994Z" fill="#FFA800"/>
<path d="M24.1399 13.9994C24.085 13.9994 24.0302 13.9825 23.9841 13.9491C23.9024 13.8902 23.8616 13.7905 23.8789 13.6919L24.6979 8.95332L21.2291 5.5978C21.1571 5.52784 21.1311 5.42344 21.1621 5.3285C21.1934 5.23329 21.2763 5.16386 21.3762 5.1494L26.1696 4.45799L28.3134 0.14676C28.358 0.0568166 28.4502 1.02754e-05 28.5509 1.02754e-05C28.6518 1.02754e-05 28.744 0.0568166 28.7883 0.14676L30.9319 4.45799L35.7255 5.1494C35.8254 5.16386 35.9081 5.23303 35.9396 5.3285C35.9706 5.42344 35.9449 5.52811 35.8726 5.5978L32.4038 8.95384L33.2226 13.6922C33.2396 13.7908 33.1988 13.8905 33.1174 13.9494C33.0358 14.0088 32.9274 14.0164 32.8381 13.9694L28.5509 11.7324L24.2631 13.9694C24.2244 13.9894 24.182 13.9994 24.1399 13.9994Z" fill="#FFA800"/>
<path d="M3.88298 13.9993C3.82813 13.9993 3.77328 13.9825 3.72718 13.9491C3.64557 13.8902 3.60476 13.7905 3.62198 13.6919L4.44101 8.95331L0.972253 5.59779C0.90018 5.52783 0.874213 5.42343 0.905215 5.32849C0.936482 5.23328 1.01942 5.16385 1.11931 5.14939L5.91268 4.45798L8.05657 0.14675C8.10109 0.0568063 8.1933 0 8.29399 0C8.39494 0 8.48715 0.0568063 8.5314 0.14675L10.675 4.45798L15.4687 5.14939C15.5686 5.16385 15.6512 5.23302 15.6828 5.32849C15.7138 5.42343 15.6881 5.5281 15.6157 5.59779L12.147 8.95383L12.9657 13.6922C12.9827 13.7908 12.9419 13.8905 12.8605 13.9494C12.7789 14.0088 12.6705 14.0164 12.5813 13.9694L8.29399 11.7323L4.00619 13.9694C3.96751 13.9893 3.92511 13.9993 3.88298 13.9993Z" fill="#FFA800"/>
</svg>
